<svg width="94" height="19" viewBox="0 0 94 19" fill="none" xmlns="http://www.w3.org/2000/svg">
    <mask id="mask0_926:1499" style="mask-type:alpha" maskUnits="userSpaceOnUse" x="0" y="0" width="94" height="19">
        <rect width="94" height="18.9182" fill="#C4C4C4"/>
    </mask>
    <g mask="url(#mask0_926:1499)">
        <rect x="53.3037" y="-64.5162" width="5.91195" height="140.704" transform="rotate(45 53.3037 -64.5162)" fill="#9646FB"/>
        <rect x="70.8613" y="-46.9586" width="5.91195" height="140.704" transform="rotate(45 70.8613 -46.9586)" fill="#9646FB"/>
        <rect x="88.4189" y="-29.401" width="5.91195" height="140.704" transform="rotate(45 88.4189 -29.401)" fill="#9646FB"/>
        <rect x="105.977" y="-11.8434" width="5.91195" height="140.704" transform="rotate(45 105.977 -11.8434)" fill="#9646FB"/>
        <rect x="59.1562" y="-58.6638" width="5.91195" height="140.704" transform="rotate(45 59.1562 -58.6638)" fill="#9646FB"/>
        <rect x="76.7139" y="-41.1061" width="5.91195" height="140.704" transform="rotate(45 76.7139 -41.1061)" fill="#9646FB"/>
        <rect x="94.2715" y="-23.5486" width="5.91195" height="140.704" transform="rotate(45 94.2715 -23.5486)" fill="#9646FB"/>
        <rect x="111.829" y="-5.99097" width="5.91195" height="140.704" transform="rotate(45 111.829 -5.99097)" fill="#9646FB"/>
        <rect x="65.0088" y="-52.8112" width="5.91195" height="140.704" transform="rotate(45 65.0088 -52.8112)" fill="#9646FB"/>
        <rect x="82.5664" y="-35.2536" width="5.91195" height="140.704" transform="rotate(45 82.5664 -35.2536)" fill="#9646FB"/>
        <rect x="100.124" y="-17.696" width="5.91195" height="140.704" transform="rotate(45 100.124 -17.696)" fill="#9646FB"/>
        <rect x="117.682" y="-0.138397" width="5.91195" height="140.704" transform="rotate(45 117.682 -0.138397)" fill="#9646FB"/>
    </g>
</svg>
