<svg width="1024" height="1024" viewBox="0 0 1024 1024" fill="none" xmlns="http://www.w3.org/2000/svg">
    <style>
        rect {
            fill: transparent;
        }

        path {
            fill: #0B0B0B;
        }

        @media (prefers-color-scheme: dark) {
            rect {
                fill: #0B0B0B;
            }

            path {
                fill: #F9F9F9;
            }
        }
    </style>

    <rect width="1024" height="1024"/>
    <path d="M417.5 299.5C426.667 299.5 443.167 301.333 467 305V379.25H445C439.5 379.25 434.55 381.083 430.15 384.75C425.75 388.05 422.45 391.717 420.25 395.75L368 494.75L475.25 690H370.75L285.5 533.25H236V690H137V305H236V456.25H285.5L340.5 351.75C348.567 336.35 358.467 323.883 370.2 314.35C382.3 304.45 398.067 299.5 417.5 299.5ZM813.393 305H923.393L799.643 497.5L926.143 690H816.143L739.143 569L662.143 690H552.143L678.643 497.5L554.893 305H664.343L739.143 426L813.393 305Z" />
</svg>
