<svg width="159" height="32" viewBox="0 0 159 32" fill="none" xmlns="http://www.w3.org/2000/svg">
    <mask id="mask0_926:1492" style="mask-type:alpha" maskUnits="userSpaceOnUse" x="0" y="0" width="159" height="32">
        <rect width="159" height="32" fill="#C4C4C4"/>
    </mask>
    <g mask="url(#mask0_926:1492)">
        <rect x="90.1631" y="-109.128" width="10" height="238" transform="rotate(45 90.1631 -109.128)" fill="#9646FB"/>
        <rect x="119.862" y="-79.4299" width="10" height="238" transform="rotate(45 119.862 -79.4299)" fill="#9646FB"/>
        <rect x="149.56" y="-49.7314" width="10" height="238" transform="rotate(45 149.56 -49.7314)" fill="#9646FB"/>
        <rect x="179.259" y="-20.033" width="10" height="238" transform="rotate(45 179.259 -20.033)" fill="#9646FB"/>
        <rect x="100.062" y="-99.229" width="10" height="238" transform="rotate(45 100.062 -99.229)" fill="#9646FB"/>
        <rect x="129.761" y="-69.5305" width="10" height="238" transform="rotate(45 129.761 -69.5305)" fill="#9646FB"/>
        <rect x="159.459" y="-39.832" width="10" height="238" transform="rotate(45 159.459 -39.832)" fill="#9646FB"/>
        <rect x="189.158" y="-10.1335" width="10" height="238" transform="rotate(45 189.158 -10.1335)" fill="#9646FB"/>
        <rect x="109.962" y="-89.3295" width="10" height="238" transform="rotate(45 109.962 -89.3295)" fill="#9646FB"/>
        <rect x="139.66" y="-59.631" width="10" height="238" transform="rotate(45 139.66 -59.631)" fill="#9646FB"/>
        <rect x="169.359" y="-29.9325" width="10" height="238" transform="rotate(45 169.359 -29.9325)" fill="#9646FB"/>
        <rect x="199.057" y="-0.234009" width="10" height="238" transform="rotate(45 199.057 -0.234009)" fill="#9646FB"/>
    </g>
</svg>
